<svg width="567" height="683" viewBox="0 0 567 683" fill="none" xmlns="http://www.w3.org/2000/svg">
<path d="M263.6 2.49756C245.333 7.29756 228.667 18.8976 218.8 33.6976L214 40.8976L205.6 36.3643C194.133 30.3643 183.733 27.8309 169.6 27.8309C155.2 27.8309 144.4 30.4976 132 36.8976C108.667 49.0309 91.3333 76.7642 91.3333 101.698V109.164H86.4C77.8667 109.164 63.0667 112.898 54.2667 117.298C35.8667 126.364 20.4 144.231 13.8667 163.964C11.3333 171.831 10.6667 176.631 10.6667 187.831C10.6667 212.364 17.7333 227.698 39.4667 249.831L51.2 261.831L42.2667 266.498C28.9333 273.431 15.6 287.164 8.93333 301.298C0.4 319.298 0 322.231 0 368.498C0 409.164 0 409.964 3.2 416.898C7.33333 426.098 17.3333 435.031 26.6667 437.964L33.8667 440.231L34.4 522.364C34.8 613.564 34.5333 610.364 44.1333 629.964C52.8 647.698 67.7333 662.631 85.7333 671.831C97.2 677.564 103.2 677.164 106.8 670.231C110 664.231 107.2 660.098 95.3333 653.831C83.0667 647.298 69.6 634.231 63.7333 623.031C55.2 607.031 54.9333 604.631 54.2667 544.764L53.7333 490.498H128.533H203.333V576.498V662.498H171.333C141.067 662.498 139.2 662.631 136.667 665.164C132.933 668.898 133.2 675.164 137.333 679.164L140.533 682.498H293.333C465.467 682.498 457.467 682.898 478.667 672.498C500.133 661.964 513.2 648.764 523.467 627.164C532.4 608.364 532.667 605.564 532.667 518.098V440.364L539.867 438.098C549.333 435.031 559.333 426.098 563.467 416.898C566.667 409.964 566.667 409.164 566.667 368.498C566.667 322.231 566.267 319.298 557.733 301.298C551.067 287.298 537.733 273.431 524.4 266.498L515.467 261.831L527.867 249.164C547.067 229.298 554.8 213.964 556.267 192.631C559.067 150.498 527.067 113.564 484.533 109.698L475.333 108.764V100.631C475.2 83.5643 468.8 74.0976 459.6 77.2976C454.133 79.1643 452 84.4976 453.867 91.2976C456 99.0309 455.733 113.164 453.467 113.164C452.533 113.164 447.2 115.298 441.867 118.098C433.067 122.364 428.267 126.631 397.067 157.698L362 192.364L361.733 130.764C361.6 96.8976 361.467 66.8976 361.467 64.0976C361.333 59.2976 361.467 59.0309 372 53.8309C382.4 48.6309 382.8 48.4976 397.333 48.4976C411.6 48.4976 412.267 48.6309 422.533 53.4309C428.267 56.2309 434.4 58.4976 436.133 58.4976C444 58.4976 447.733 47.0309 441.733 41.5643C432.933 33.4309 414.533 27.8309 397.067 27.8309C382.933 27.8309 372.533 30.3642 360.8 36.4976C356 39.0309 352.133 41.0309 352 40.7642C337.2 18.4976 320.8 6.23093 299.6 1.83093C287.467 -0.835734 275.333 -0.569108 263.6 2.49756ZM297.333 21.8309C318.933 27.5643 335.867 45.4309 340.533 67.5643C341.467 72.2309 342 97.8309 342 142.631V210.764L346.533 215.298C350.267 219.031 352 219.831 356.8 219.831C362.4 219.831 362.533 219.698 402.533 180.098C446.667 136.231 450.667 133.298 469.2 130.098C507.067 123.698 541.867 158.631 535.6 196.764C533.067 211.698 527.867 220.364 509.867 239.031L493.733 255.831H283.333H72.9333L56.8 239.031C38.8 220.364 33.6 211.698 31.0667 196.764C24.8 158.631 59.7333 123.698 97.4667 130.098C116 133.298 120 136.231 164.133 180.098C204.133 219.698 204.267 219.831 209.867 219.831C214.667 219.831 216.4 219.031 220.133 215.298L224.667 210.764V141.564C224.667 83.6975 225.067 71.1642 226.667 64.4976C234.933 32.8976 266.4 13.8309 297.333 21.8309ZM194.933 53.8309C204.8 58.8976 205.333 59.4309 205.2 63.4309C205.2 65.8309 205.067 95.8309 204.933 130.098L204.667 192.364L169.733 157.698C138.4 126.631 133.6 122.364 124.8 118.098C119.467 115.298 114.133 113.164 112.933 113.164C111.333 113.164 111.067 111.298 111.6 102.098C112.8 78.3643 128.267 58.6309 152 50.0976C157.067 48.3643 161.733 47.8309 171.6 48.2309C183.6 48.4976 185.2 48.8976 194.933 53.8309ZM510.667 282.364C522.267 287.964 534.667 300.231 539.6 310.498C545.6 323.431 546.267 329.564 545.733 370.764L545.333 408.898L542 412.498C534.933 420.231 551.067 419.831 283.333 419.831C15.6 419.831 31.7333 420.231 24.6667 412.498L21.3333 408.898L20.9333 370.764C20.6667 344.498 20.9333 330.231 22.1333 325.164C26.6667 304.098 41.6 287.298 62.1333 279.831C69.2 277.298 74.8 277.298 285.333 277.564L501.333 277.831L510.667 282.364ZM342 551.164V662.498H283.333H224.667V551.164V439.831H283.333H342V551.164ZM512.267 544.764C511.867 580.898 511.2 601.164 510.133 605.164C503.333 631.031 480.933 653.298 455.333 659.964C451.733 660.898 432.533 661.698 406.4 662.098L363.333 662.764V576.631V490.498H438.133H512.933L512.267 544.764Z" fill="#0501E3"/>
<path d="M109.145 246.423C69.4934 254.908 38.2386 285.211 33.5737 317.535C30.7748 339.757 38.2386 353.495 55.4987 359.96C78.3567 368.04 98.4157 356.727 105.88 331.676C108.678 323.191 114.743 315.111 122.207 311.878C132.936 306.626 135.735 306.626 146.464 312.686C154.394 317.131 158.593 323.191 158.593 330.06C158.593 343.798 182.384 364 198.244 364C205.242 364 215.504 359.556 222.502 353.495C232.765 344.606 234.164 340.565 232.298 323.596C226.234 271.474 166.523 233.898 109.145 246.423Z" fill="#FA3E15"/>
<path d="M409.145 246.423C369.493 254.908 338.239 285.211 333.574 317.535C330.775 339.757 338.239 353.495 355.499 359.96C378.357 368.04 398.416 356.727 405.88 331.676C408.678 323.191 414.743 315.111 422.207 311.878C432.936 306.626 435.735 306.626 446.464 312.686C454.394 317.131 458.593 323.191 458.593 330.06C458.593 343.798 482.384 364 498.244 364C505.242 364 515.504 359.556 522.502 353.495C532.765 344.606 534.164 340.565 532.298 323.596C526.234 271.474 466.523 233.898 409.145 246.423Z" fill="#FA3E15"/>
<path d="M195.538 444.803C177.963 461.582 178.865 483.297 198.242 505.012C221.674 531.662 249.163 544 283.861 544C318.56 543.506 339.289 535.117 364.524 509.947C379.846 494.648 383 488.726 383 472.933C383 458.128 380.296 451.712 371.284 443.816C355.061 429.503 341.993 430.984 322.616 447.764C293.775 472.933 271.244 471.946 242.403 445.79C225.73 430.49 211.31 429.997 195.538 444.803Z" fill="#FA3E15"/>
</svg>
